<svg width="101" height="20" viewBox="0 0 101 20" fill="none" xmlns="http://www.w3.org/2000/svg">
<g clip-path="url(#clip0_152_4600)">
<path d="M5.60449 18.3333L6.95866 12.4792L2.41699 8.54167L8.41699 8.02083L10.7503 2.5L13.0837 8.02083L19.0837 8.54167L14.542 12.4792L15.8962 18.3333L10.7503 15.2292L5.60449 18.3333Z" fill="#F16421"/>
<path d="M25.6045 18.3333L26.9587 12.4792L22.417 8.54167L28.417 8.02083L30.7503 2.5L33.0837 8.02083L39.0837 8.54167L34.542 12.4792L35.8962 18.3333L30.7503 15.2292L25.6045 18.3333Z" fill="#F16421"/>
<path d="M45.6045 18.3333L46.9587 12.4792L42.417 8.54167L48.417 8.02083L50.7503 2.5L53.0837 8.02083L59.0837 8.54167L54.542 12.4792L55.8962 18.3333L50.7503 15.2292L45.6045 18.3333Z" fill="#F16421"/>
<path d="M65.6045 18.3333L66.9587 12.4792L62.417 8.54167L68.417 8.02083L70.7503 2.5L73.0837 8.02083L79.0837 8.54167L74.542 12.4792L75.8962 18.3333L70.7503 15.2292L65.6045 18.3333Z" fill="#F16421"/>
<path d="M85.6045 18.3333L86.9587 12.4792L82.417 8.54167L88.417 8.02083L90.7503 2.5L93.0837 8.02083L99.0837 8.54167L94.542 12.4792L95.8962 18.3333L90.7503 15.2292L85.6045 18.3333Z" fill="#625B71"/>
</g>
<defs>
<clipPath id="clip0_152_4600">
<rect width="100" height="20" fill="white" transform="translate(0.75)"/>
</clipPath>
</defs>
</svg>
